<svg width="65" height="65" viewBox="0 0 65 65" fill="none" xmlns="http://www.w3.org/2000/svg">
<g clip-path="url(#clip0_405_732)">
<path d="M32.5191 65.0119L44.4791 25.0891H20.5588L32.5191 65.0119Z" fill="#E24329"/>
<path d="M32.519 65.0116L20.5587 25.0889H3.79736L32.519 65.0116Z" fill="#FC6D26"/>
<path d="M3.79738 25.0889L0.162962 37.2213C0.00136505 37.7607 0.00134276 38.3416 0.162899 38.881C0.324455 39.4204 0.639295 39.8905 1.0623 40.2238L32.519 65.0119L3.79712 25.0891L3.79738 25.0889Z" fill="#FCA326"/>
<path d="M3.79736 25.089H20.5587L13.3557 1.0436C12.985 -0.193708 11.3711 -0.193433 11.0007 1.0436L3.79736 25.089Z" fill="#E24329"/>
<path d="M32.5191 65.0116L44.4791 25.0889H61.2407L32.5191 65.0116Z" fill="#FC6D26"/>
<path d="M61.2407 25.0889L64.8751 37.2213C65.0366 37.7607 65.0366 38.3417 64.875 38.8811C64.7134 39.4204 64.3985 39.8905 63.9755 40.2238L32.519 65.0119L61.2407 25.0891V25.0889Z" fill="#FCA326"/>
<path d="M61.2406 25.089H44.479L51.6823 1.0436C52.053 -0.193708 53.6669 -0.193433 54.0373 1.0436L61.2406 25.089Z" fill="#E24329"/>
</g>
<defs>
<clipPath id="clip0_405_732">
<rect width="65" height="65" fill="white"/>
</clipPath>
</defs>
</svg>
