<svg width="65" height="65" viewBox="0 0 65 65" fill="none" xmlns="http://www.w3.org/2000/svg">
<g clip-path="url(#clip0_403_722)">
<path d="M59.1163 3.38958C58.202 5.57287 57.0422 7.64615 55.6453 9.55018C49.5331 3.44036 41.2366 0.00463867 32.5931 0.00463867C14.7135 0.00463867 0 14.7291 0 32.627C0 41.5548 3.6572 50.1018 10.125 56.2624L11.3272 57.3287C17.2024 62.2791 24.6438 65.004 32.3222 65.004C49.3214 65.004 63.6116 51.6843 64.8222 34.7088C65.7111 26.3987 63.273 15.8885 59.1163 3.38958ZM14.7558 56.4486C14.2309 57.1002 13.4267 57.481 12.5886 57.481C11.0563 57.481 9.80333 56.2201 9.80333 54.6884C9.80333 53.1567 11.0647 51.8958 12.5886 51.8958C13.2235 51.8958 13.85 52.1158 14.341 52.522C15.5346 53.4868 15.7209 55.2554 14.7558 56.4486ZM58.9809 46.683C50.9384 57.4048 33.7614 53.7914 22.7475 54.3076C22.7475 54.3076 20.7919 54.4261 18.8278 54.7476C18.8278 54.7476 19.5643 54.4345 20.521 54.0707C28.2502 51.3796 31.9074 50.855 36.6059 48.4432C45.4526 43.9412 54.1977 34.091 56.0178 23.8431C52.6485 33.7018 42.4388 42.1726 33.1349 45.6168C26.7602 47.9693 15.2468 50.2541 15.2468 50.2541L14.7812 50.0087C6.94191 46.1922 6.70487 29.2082 20.9527 23.7246C27.192 21.3213 33.1603 22.6415 39.8991 21.0336C47.0949 19.3242 55.4168 13.9252 58.8031 6.88454C62.5957 18.1479 67.1588 35.7835 58.9809 46.683Z" fill="#77BC1F"/>
</g>
<defs>
<clipPath id="clip0_403_722">
<rect width="65" height="65" fill="white"/>
</clipPath>
</defs>
</svg>
