<svg width="65" height="65" viewBox="0 0 65 65" fill="none" xmlns="http://www.w3.org/2000/svg">
<path d="M23.1746 60.7207C25.6931 61.7344 28.4254 62.3358 31.2944 62.436C35.177 62.5717 38.8692 61.7689 42.1701 60.244C38.2119 58.6889 34.6271 56.4147 31.5676 53.5872C29.5844 56.7624 26.6512 59.2705 23.1746 60.7207Z" fill="#FF9100"/>
<path d="M31.5671 53.5881C24.5833 47.129 20.3466 37.7804 20.7046 27.5265C20.7163 27.1936 20.7339 26.8608 20.7545 26.5281C19.5036 26.2046 18.1978 26.0073 16.854 25.9604C14.9306 25.8932 13.0678 26.1317 11.3092 26.6269C9.44487 29.8926 8.31983 33.6397 8.17967 37.6532C7.81797 48.0111 14.0862 57.0616 23.174 60.7216C26.6507 59.2713 29.5838 56.7663 31.5671 53.5881Z" fill="#FFC400"/>
<path d="M31.5674 53.5878C33.1911 50.9893 34.1755 47.9429 34.2901 44.6608C34.5916 36.0271 28.7876 28.6002 20.7547 26.5278C20.7341 26.8605 20.7166 27.1933 20.7049 27.5262C20.3468 37.7801 24.5835 47.1287 31.5674 53.5878Z" fill="#FF9100"/>
<path d="M33.3916 2.25977C28.8166 5.92494 25.2039 10.7578 23.018 16.3252C21.7667 19.5141 20.9803 22.9395 20.7507 26.5302C28.7836 28.6026 34.5877 36.0295 34.2862 44.663C34.1716 47.9452 33.1843 50.9886 31.5634 53.5901C34.6227 56.4205 38.2076 58.6919 42.1657 60.2469C50.1106 56.5744 55.7475 48.6719 56.0739 39.3248C56.2854 33.2688 53.9586 27.8713 50.6708 23.3155C47.1986 18.4972 33.3916 2.25977 33.3916 2.25977Z" fill="#DD2C00"/>
</svg>
