<svg width="65" height="65" viewBox="0 0 65 65" fill="none" xmlns="http://www.w3.org/2000/svg">
<g clip-path="url(#clip0_404_724)">
<path d="M62 49C61.6155 44.2242 60.0394 39.6184 57.4139 35.598C54.7884 31.5776 51.1961 28.2689 46.9608 25.9703L51.8692 17.5227C51.9365 17.4075 51.9802 17.2802 51.9979 17.1482C52.0157 17.0162 52.007 16.882 51.9725 16.7533C51.938 16.6246 51.8782 16.5039 51.7967 16.3981C51.7152 16.2923 51.6135 16.2035 51.4973 16.1367C51.3812 16.0699 51.253 16.0265 51.12 16.0089C50.987 15.9913 50.8518 15.9999 50.7221 16.0342C50.5924 16.0684 50.4708 16.1277 50.3642 16.2086C50.2576 16.2895 50.1681 16.3905 50.1008 16.5057L45.1263 25.0517C41.1544 23.2871 36.8517 22.3749 32.5 22.3749C28.1483 22.3749 23.8456 23.2871 19.8737 25.0517L14.8992 16.5057C14.7633 16.273 14.5398 16.1034 14.2779 16.0342C14.016 15.9649 13.7372 16.0018 13.5027 16.1367C13.2682 16.2715 13.0972 16.4933 13.0275 16.7533C12.9578 17.0132 12.9949 17.29 13.1308 17.5227L18.0392 25.9703C13.8039 28.2689 10.2116 31.5776 7.58609 35.598C4.96061 39.6184 3.38455 44.2242 3 49M18.9151 40.6509C18.2628 40.6487 17.6379 40.3897 17.1778 39.9307C16.7177 39.4717 16.4598 38.8503 16.4609 38.2028C16.462 37.5553 16.7219 36.9347 17.1836 36.4772C17.6453 36.0198 18.271 35.7628 18.9234 35.7628C19.5758 35.7628 20.2015 36.0198 20.6632 36.4772C21.1248 36.9347 21.3848 37.5553 21.3859 38.2028C21.3869 38.8503 21.1291 39.4717 20.669 39.9307C20.2089 40.3897 19.584 40.6487 18.9317 40.6509M46.0849 40.6509C45.4325 40.6487 44.8077 40.3897 44.3475 39.9307C43.8874 39.4717 43.6296 38.8503 43.6307 38.2028C43.6318 37.5553 43.8917 36.9347 44.3534 36.4772C44.8151 36.0198 45.4408 35.7628 46.0931 35.7628C46.7455 35.7628 47.3712 36.0198 47.8329 36.4772C48.2946 36.9347 48.5545 37.5553 48.5556 38.2028C48.5567 38.8503 48.2989 39.4717 47.8387 39.9307C47.3786 40.3897 46.7538 40.6487 46.1014 40.6509" fill="#3DDC84"/>
</g>
<defs>
<clipPath id="clip0_404_724">
<rect width="65" height="65" fill="white"/>
</clipPath>
</defs>
</svg>
